Coordinates
version=1
nRows=8
nColumns=40
inDegrees=yes

Units are S.I. units (second, meters, Newtons, ...)
Angles are in degrees.

endheader
time	pelvis_tilt	pelvis_list	pelvis_rotation	pelvis_tx	pelvis_ty	pelvis_tz	hip_flexion_r	hip_adduction_r	hip_rotation_r	knee_angle_r	knee_angle_r_beta	ankle_angle_r	subtalar_angle_r	mtp_angle_r	hip_flexion_l	hip_adduction_l	hip_rotation_l	knee_angle_l	knee_angle_l_beta	ankle_angle_l	subtalar_angle_l	mtp_angle_l	lumbar_extension	lumbar_bending	lumbar_rotation	arm_flex_r	arm_add_r	arm_rot_r	elbow_flex_r	pro_sup_r	wrist_flex_r	wrist_dev_r	arm_flex_l	arm_add_l	arm_rot_l	elbow_flex_l	pro_sup_l	wrist_flex_l	wrist_dev_l
     57.92250000	     -3.95377624	     -4.99816128	     -3.54686200	      0.91314994	      0.92295854	      0.44016628	     25.85909374	     -3.64560201	     -1.40805188	     62.96291682	     62.96291682	      4.19480172	    -18.10536304	      3.12500092	     18.01352244	     -4.65927907	     -4.10063262	     29.22553732	     29.22553732	     16.86401667	    -16.28673247	      4.69377600	    -10.44700194	      5.61057448	      2.10057980	      3.47503443	    -12.59858925	    -13.16399201	     20.44267821	     46.94957114	      0.00000000	      0.00000000	     27.47933352	    -16.00513308	      4.02829834	     40.41309094	     46.46412673	      0.00000000	      0.00000000
     57.94071429	     -3.87501816	     -5.02054722	     -4.15485506	      0.91167728	      0.92272056	      0.43982889	     26.92505515	     -3.37849898	     -1.38540299	     62.39039286	     62.39039286	      4.94089019	    -18.32283424	      3.20088647	     17.56754668	     -4.69233719	     -4.41854405	     29.28963934	     29.28963934	     17.20985900	    -16.58233226	      4.71701640	    -10.67187794	      5.82744256	      1.47807554	      1.55498211	    -12.66666883	    -13.26095452	     19.80585357	     46.96955210	      0.00000000	      0.00000000	     28.33943879	    -17.03291818	      3.62408225	     40.84662414	     46.52022549	      0.00000000	      0.00000000
     57.95892857	     -3.96185959	     -5.07512151	     -4.86481687	      0.90996262	      0.92247652	      0.43990431	     28.09461296	     -2.91943678	     -1.31660923	     61.27787795	     61.27787795	      6.01288630	    -18.41276891	      4.40093207	     17.31644071	     -4.83315544	     -4.86812918	     29.39791228	     29.39791228	     17.71433810	    -16.77309074	      5.20659525	    -10.87933027	      6.02709350	      2.16212580	     -1.18062774	    -12.87543743	    -13.52137827	     19.48300286	     46.99134865	      0.00000000	      0.00000000	     29.30091345	    -16.88155831	      2.29874479	     43.37168244	     46.68738402	      0.00000000	      0.00000000
     57.97714286	     -4.13236046	     -5.06471913	     -5.52017719	      0.90828285	      0.92249787	      0.44031044	     29.10294319	     -2.55594183	     -1.46808102	     59.42538618	     59.42538618	      6.83748456	    -18.25452017	      4.50923039	     16.99153744	     -4.92389066	     -5.37767603	     29.16957670	     29.16957670	     17.96452056	    -16.82249259	      5.31967919	    -10.85203780	      6.14013172	      1.70320694	     -2.92769487	    -12.89752901	    -13.63984503	     19.15246601	     47.00155400	      0.00000000	      0.00000000	     30.14187697	    -17.92423765	      1.72036682	     44.03110314	     46.75799058	      0.00000000	      0.00000000
     57.99535714	     -4.36358849	     -5.08271054	     -6.25547055	      0.90655941	      0.92285121	      0.44104375	     29.89846885	     -2.04383000	     -1.58940188	     56.79196693	     56.79196693	      7.45756669	    -18.00872598	      4.26844795	     16.65895498	     -5.08108502	     -5.97249941	     28.85190448	     28.85190448	     18.41229373	    -16.72665473	      6.02674559	    -11.00147972	      6.29775656	      1.63677017	     -5.60199417	    -12.92310596	    -14.37117699	     21.39154124	     46.95382985	      0.00000000	      0.00000000	     29.93143858	    -18.11071833	     -2.00513545	     48.28129585	     47.13695291	      0.00000000	      0.00000000
     58.01357143	     -4.73590044	     -5.02705045	     -6.95540607	      0.90470765	      0.92322314	      0.44215782	     30.69522827	     -1.57278526	     -1.78245865	     53.70485262	     53.70485262	      8.05315818	    -17.26483018	      4.23814997	     16.39830176	     -5.20244082	     -6.62924538	     28.32607404	     28.32607404	     18.48446548	    -16.65439071	      6.11541095	    -10.81001468	      6.34732822	      1.39356380	     -7.04354558	    -12.88697209	    -14.40961148	     20.99481103	     46.96106384	      0.00000000	      0.00000000	     30.98219789	    -19.09244189	     -2.43991295	     48.86372765	     47.19028279	      0.00000000	      0.00000000
     58.03178571	     -4.91373109	     -5.09009125	     -7.64206903	      0.90324427	      0.92432122	      0.44350928	     30.71088996	     -1.03564373	     -2.17760742	     49.51931398	     49.51931398	      7.09757842	    -16.57510497	     -0.07907938	     15.65325545	     -5.42144234	     -7.35739658	     27.35467243	     27.35467243	     18.31438849	    -16.43478719	      5.59944425	    -10.99645538	      6.50277961	      1.53953562	     -9.30658966	    -12.86179659	    -14.60990177	     22.86474488	     46.87270595	      0.00000000	      0.00000000	     31.13835330	    -19.13765564	     -5.34444499	     52.39062462	     47.45517011	      0.00000000	      0.00000000
     58.05000000	     -5.36549854	     -5.07075862	     -8.27589165	      0.90161841	      0.92511576	      0.44523044	     30.98408342	     -0.45637720	     -2.47249635	     45.30521427	     45.30521427	      7.35481438	    -14.85259079	     -0.10934745	     15.25952323	     -5.58873392	     -7.99217264	     26.44373403	     26.44373403	     18.28895920	    -16.19739284	      5.70135561	    -10.69957586	      6.57897250	      1.51618061	    -10.53042718	    -12.71370131	    -14.59068633	     22.58142947	     46.87062726	      0.00000000	      0.00000000	     32.18280931	    -19.89188584	     -5.69211788	     53.13140248	     47.49873369	      0.00000000	      0.00000000
